<svg xmlns="http://www.w3.org/2000/svg" viewBox="0 0 323.79 46.25"><defs><style>.cls-1{fill:#fff;}</style></defs><g id="Layer_2" data-name="Layer 2"><g id="Layer_1-2" data-name="Layer 1"><path class="cls-1" d="M235.21,42.34c7.16-19.83-10.73-20.32-.71-39.65C227.34,23,246,21,237.36,43.83,236.64,45.81,234.5,45.31,235.21,42.34Z"/><path class="cls-1" d="M5.39,8.8H0V.5H26.22V8.8H20.83V43.89h-.56V8.8h-.93V43.89h-.56V8.8h-.93V43.89H17.3V8.8h-.93V43.89h-.56V8.8h-.93V43.89h-.56V8.8h-.93V43.89h-.56V8.8H11.9V43.89h-.56V8.8h-.93V43.89H9.86V8.8H8.93V43.89H8.37V8.8H7.44V43.89H6.88V8.8H6V43.89H5.39Z"/><path class="cls-1" d="M41.1,41.41A22.12,22.12,0,0,1,33,33.32a21.52,21.52,0,0,1-3-11.13A22.44,22.44,0,0,1,32.79,11a21.43,21.43,0,0,1,7.85-8,21,21,0,0,1,11-3A22.85,22.85,0,0,1,63.05,2.94a22.13,22.13,0,0,1,8.24,8,21.52,21.52,0,0,1,3,11.22,21.53,21.53,0,0,1-3,11.1,22.4,22.4,0,0,1-8,8.09,21.24,21.24,0,0,1-11.06,3A22,22,0,0,1,41.1,41.41ZM66,21.64a13.27,13.27,0,0,0-2-6.73,14.13,14.13,0,0,0-5-4.84,14.07,14.07,0,0,0-13.63,0,14.13,14.13,0,0,0-5,4.84,13.27,13.27,0,0,0-2,6.73Zm0,1.48v-.93H38.25v.93Zm-.25,1.49.19-.93H38.31l.12.93Zm-.31,1.49.25-.93H38.56l.25.93Zm-.55,1.49.37-.93H38.93l.37.93Zm-.75,1.48.5-.93H39.55l.5.93Zm-1,1.49.68-.93H40.42a7.34,7.34,0,0,0,.62.93Zm-1.24,1.49c.21-.21.47-.52.81-.93H41.47l.87.93Zm-1.8,1.49,1.18-.93H43l.65.52.53.41ZM57.47,35a14.21,14.21,0,0,0,1.79-.93H45A14.21,14.21,0,0,0,46.8,35Zm-1.62.55H48.42a14.05,14.05,0,0,0,7.43,0Z"/><path class="cls-1" d="M76.19.5h9.36l-.37.93.49,1.17L86.54.5h.56L86,3.35l.56,1.3L88.15.5h.56L86.85,5.33l.5,1.18L89.7.5h.62l-2.6,6.75.56,1.18,3-7.93h.62L88.59,9.17l.55,1.18L92.92.5h.56L89.45,11l.5,1.18L94.47.5h.62L90.26,13l.56,1.3,5-12.71-.5-1h9.36l-.37.93.5,1.17.86-2.1h.56l-1.11,2.85.55,1.3L107.24.5h.56l-1.86,4.83.5,1.18,2.35-6h.62l-2.6,6.75.56,1.18,3-7.93H111l-3.35,8.67.56,1.18L112,.5h.56l-4,10.53.49,1.18L113.57.5h.62L109.35,13l.56,1.3L115.24.5h.56l-5.58,14.44.56,1.18,6-15.62h.62l-6.26,16.36.56,1.24L118.34.5H119l-7,18.28.55,1.24L120,.5h.55l-7.75,20.21.5,1.17L121.56.5h.63l-8.56,22.13.56,1.24,9-23.37h.55L114.5,24.55l.56,1.18L124.73.5h.62l-10,26,.55,1.18L126.34.5H127L116.23,28.39l.56,1.24L128,.5h.56L117.1,30.31l.5,1.18L129.5.5h.62L117.91,32.3l.56,1.3L131.17.5h.56l-13,33.78.5,1.24L132.66.5h.68L115.8,46.25,105.45,23.19,96.71,46.25ZM96.52,3.35l-.43-1.12-5,12.71.56,1.18Zm.87,1.92-.5-1.18L92,16.86l.56,1.24Zm.93,2L97.76,6l-4.9,12.77L93.42,20Zm.8,1.86-.49-1.17-4.9,12.77.5,1.17Zm.87,2-.56-1.24L94.54,22.63l.55,1.24Zm.87,1.86-.56-1.18L95.4,24.55,96,25.73Zm.87,1.92-.56-1.18-4.9,12.83.56,1.18Zm.87,1.92L102,15.62l-4.9,12.77.56,1.24Zm.8,1.8-.49-1.12L98,30.31l.49,1.18Zm.87,2-.56-1.24-4.9,13,.56,1.3Zm.81,1.8-.5-1.12-5,13,.5,1.24Z"/><path class="cls-1" d="M135.82.5h27.4V8.8h-12v9h12V26.1h-12v9.48h12v8.31h-27.4Zm1.49,35.08V8.8h-.93V35.58Zm1.49,0V8.8h-.93V35.58Zm1.49,0V8.8h-.93V35.58Zm1.48,0V8.8h-.93V35.58Zm1.49,0V8.8h-.93V35.58Zm1.49,0V8.8h-.93V35.58Zm1.49,0V8.8h-.93V35.58Zm1.49,0V8.8h-.93V35.58Zm1.48,0V8.8h-.93V35.58Zm1.49,0V8.8h-.93V35.58Z"/><path class="cls-1" d="M194.34,43.89H183.62l-.62-.68v.68h-.56V42.53l-.93-1.06v2.42H181v-3L180,39.74v4.15h-.56V39.12l-.93-1.06v5.83H178V37.44l-.93-1v7.5h-.56V35.77l-.93-1.12v9.24H175V34L174.07,33V43.89h-.56V32.3l-.93-1.06V43.89H172V30.62l-.93-1.05V43.89h-.56V29l-.93-1.05v16h-.56V27.21l-.93-1.05V43.89h-.56V.5h11a16.48,16.48,0,0,1,8,1.86,13.21,13.21,0,0,1,5.33,5.17,14.93,14.93,0,0,1,1.89,7.53,15.21,15.21,0,0,1-1.36,6.36,14,14,0,0,1-4,5.14,14.33,14.33,0,0,1-6.35,2.89ZM169.05,8.8h-.93V21.39h.93Zm1.49,0h-.93V21.39h.93Zm1.49,0h-.93V21.39H172Zm1.48,0h-.93V21.39h.93Zm1.49,0h-.93V21.39H175Zm1.49,0h-.93V21.39h.93Zm1.49.13a5.16,5.16,0,0,0-.93-.07V21.39l.93-.06Zm1.48.18L178.53,9V21.26l.93-.12Zm1.49.31a3.21,3.21,0,0,0-.93-.25V21l.93-.19Zm.56,11.22.93-.37V9.92l-.93-.37ZM183,20a3,3,0,0,0,1.05-.93V11.1a5.2,5.2,0,0,0-1.05-.87Zm1.61-1.73a6.34,6.34,0,0,0,.74-3.29,5.72,5.72,0,0,0-.74-3.1Z"/><path class="cls-1" d="M203.7,42.43a13.72,13.72,0,0,1-5-5.64A17.36,17.36,0,0,1,196.88,29h21a6,6,0,0,0-1.55-2.79,8.79,8.79,0,0,0-2.54-1.77c-.95-.43-2.23-.94-3.85-1.51a41,41,0,0,1-5.36-2.36,9.71,9.71,0,0,1-3.44-3.32,10.76,10.76,0,0,1-1.42-5.92,11.38,11.38,0,0,1,5.48-9.76A10.55,10.55,0,0,1,210.77,0a11.4,11.4,0,0,1,5.36,1.18,10.74,10.74,0,0,1,3.94,3.66l-5.64,3.71a8.39,8.39,0,0,0-1.65-1,4.52,4.52,0,0,0-1.89-.37,4,4,0,0,0-2,.53,4.06,4.06,0,0,0-1.49,1.42,3.55,3.55,0,0,0-.56,1.89,3.2,3.2,0,0,0,.87,2.33,7,7,0,0,0,2.2,1.49c.89.39,2.16.86,3.82,1.39a41.83,41.83,0,0,1,6.32,2.54,11.92,11.92,0,0,1,4.31,4,12.84,12.84,0,0,1,1.83,7.26,13.58,13.58,0,0,1-2,7.16,15.21,15.21,0,0,1-5.42,5.3,14.48,14.48,0,0,1-7.38,2A14.05,14.05,0,0,1,203.7,42.43Zm14.38-11.87-.06-.93H204.88a5.2,5.2,0,0,0,.06.93ZM218,32.05a2.75,2.75,0,0,0,.12-.93H205l.31.93Zm-.56,1.49a7,7,0,0,0,.44-.93H205.5l.19.37a5.58,5.58,0,0,0,.31.56ZM216.23,35l.4-.41a5.06,5.06,0,0,0,.46-.52H206.37c.33.41.6.72.8.93Zm-2.79,1.48a5.25,5.25,0,0,0,2-.93h-7.69a10.53,10.53,0,0,0,1.74.93Z"/><path class="cls-1" d="M247.18,19.09V2.46h1.88V9.62a5.14,5.14,0,0,1,4.37-2.1,5.65,5.65,0,0,1,5.72,5.88,5.7,5.7,0,0,1-5.72,5.93,5.15,5.15,0,0,1-4.37-2.08v1.84Zm10.1-5.69a4,4,0,0,0-4-4.18A4.1,4.1,0,0,0,249,13.4a4.15,4.15,0,0,0,4.2,4.23A4.06,4.06,0,0,0,257.28,13.4Z"/><path class="cls-1" d="M272.06,18.22a8.3,8.3,0,0,1-4.27,1.11c-3.82,0-6.45-2.41-6.45-5.91a5.69,5.69,0,0,1,5.83-5.9c3.84,0,6,3.11,5.4,6.59H263.3a4.14,4.14,0,0,0,4.4,3.46,7.78,7.78,0,0,0,4-1.05Zm-1.2-5.65a3.39,3.39,0,0,0-3.63-3.3,3.68,3.68,0,0,0-3.89,3.3Z"/><path class="cls-1" d="M286.83,19.09H285V17.23a5.16,5.16,0,0,1-4.37,2.1,5.7,5.7,0,0,1-5.72-5.94,5.64,5.64,0,0,1,5.72-5.87A5.13,5.13,0,0,1,285,9.61V7.76h1.88Zm-10.1-5.7a4.06,4.06,0,0,0,4,4.24,4.15,4.15,0,0,0,4.2-4.24,4.1,4.1,0,0,0-4.2-4.17A4,4,0,0,0,276.73,13.39Z"/><path class="cls-1" d="M299,7.76h1.85v6.73c0,2.84-2,4.84-5.14,4.84s-5.13-2-5.13-4.77V7.76h1.86v6.46a3.28,3.28,0,1,0,6.56,0Z"/><path class="cls-1" d="M307.15,9.37V15.5c0,1.49.8,2.14,2,2.14a6.26,6.26,0,0,0,1.94-.32l.24,1.62a6.91,6.91,0,0,1-2.38.39c-2.19,0-3.64-1.21-3.64-3.52V9.37h-2.09V7.76h2.1V4.12h1.86V7.76h3.62V9.37Z"/><path class="cls-1" d="M321.73,7.76h2.06l-5.35,12.77c-1,2.26-2,3.52-4.32,3.52a4.47,4.47,0,0,1-1.94-.39l.23-1.59a4.14,4.14,0,0,0,1.6.31c1.29,0,2.06-.82,2.72-2.44l.2-.53L312,7.76h2l3.87,9.49Z"/><path class="cls-1" d="M252.78,36.43c2.61.52,4,1.7,4,3.75,0,2.56-2,3.93-5.22,3.93a11.75,11.75,0,0,1-4.93-1l.3-2a10.29,10.29,0,0,0,4.48,1c2.1,0,3.24-.66,3.24-1.88s-1-1.67-2.86-2l-1.71-.35c-2.18-.42-3.57-1.57-3.57-3.6,0-2.34,2.06-3.9,5.33-3.9a12,12,0,0,1,4.22.73l-.27,1.9a11.12,11.12,0,0,0-3.81-.7c-2.13,0-3.31.72-3.31,1.92s.9,1.53,2.75,1.89Z"/><path class="cls-1" d="M263.13,32.57v7.11c0,1.72.93,2.47,2.27,2.47a6.94,6.94,0,0,0,2.25-.37l.29,1.88a8,8,0,0,1-2.77.45c-2.53,0-4.21-1.4-4.21-4.08V32.57h-2.43V30.7H261V26.48h2.15V30.7h4.2v1.87Z"/><path class="cls-1" d="M280.2,30.7h2.15v7.8c0,3.3-2.32,5.61-6,5.61s-5.95-2.28-5.95-5.53V30.7h2.16v7.48a3.8,3.8,0,1,0,7.59,0Z"/><path class="cls-1" d="M297.39,41.7a6,6,0,0,1-5.07,2.41,6.59,6.59,0,0,1-6.62-6.87,6.55,6.55,0,0,1,6.62-6.82,6,6,0,0,1,5.07,2.44V24.57h2.17V43.84h-2.17Zm0-4.46a4.76,4.76,0,0,0-4.88-4.84,4.64,4.64,0,0,0-4.68,4.84,4.7,4.7,0,0,0,4.68,4.9A4.82,4.82,0,0,0,297.42,37.24Z"/><path class="cls-1" d="M303.86,26.29A1.28,1.28,0,0,1,305.2,25a1.31,1.31,0,0,1,1.37,1.34,1.32,1.32,0,0,1-1.37,1.36A1.29,1.29,0,0,1,303.86,26.29Zm.26,4.41h2.17V43.84h-2.17Z"/><path class="cls-1" d="M316.79,30.42a6.85,6.85,0,1,1-7,6.85A6.78,6.78,0,0,1,316.79,30.42Zm0,11.67a4.82,4.82,0,1,0-4.8-4.82A4.72,4.72,0,0,0,316.79,42.09Z"/></g></g></svg>