<svg id="Layer_2" data-name="Layer 2" xmlns="http://www.w3.org/2000/svg" width="2232.26" height="313.23" viewBox="0 0 2232.26 313.23">
  <g id="Layer_1" data-name="Layer 1">
    <path id="Path_2057" data-name="Path 2057" d="M35.82,64.55H0V9.38H174.16V64.55H138.34v233h-3.71v-233h-6.17v233h-3.71v-233h-6.18v233h-3.7v-233h-6.18v233H105v-233H98.81v233h-3.7v-233H88.93v233h-3.7v-233H79.05v233H75.34v-233H69.17v233H65.46v-233H59.29v233H55.58v-233H49.41v233H45.7v-233H39.53v233H35.82ZM273,281.11a147.17,147.17,0,0,1-54.14-53.73,143.14,143.14,0,0,1-20-73.9q0-40.35,18.94-74.11a142.25,142.25,0,0,1,52.08-53.52Q303,6.08,343,6.09q41.16,0,75.75,19.55A147,147,0,0,1,473.47,79q20.17,33.77,20.18,74.52a143.22,143.22,0,0,1-19.77,73.7,149.29,149.29,0,0,1-53.31,53.73,141.13,141.13,0,0,1-73.49,20A145.43,145.43,0,0,1,273,281.11ZM438.48,149.77a88.561,88.561,0,0,0-13.59-44.67,92.266,92.266,0,0,0-157.24.01A88.26,88.26,0,0,0,254,149.77Zm0,9.89v-6.18H254v6.18Zm-1.65,9.88,1.23-6.18H254.44l.82,6.18Zm-2.06,9.88,1.65-6.18H256.09l1.64,6.18Zm-3.7,9.88,2.47-6.18h-175L261,189.3Zm-4.94,9.88,3.29-6.17H262.67l3.3,6.17Zm-6.59,9.88,4.53-6.17H268.44a57.68,57.68,0,0,0,4.12,6.17Zm-8.24,9.88a80.234,80.234,0,0,0,5.36-6.17H275.44l5.76,6.17Zm-11.94,9.89,7.83-6.18H285.32c1.65,1.38,3.09,2.54,4.32,3.5s2.4,1.85,3.5,2.68Zm-17.7,9.88a96.326,96.326,0,0,0,11.94-6.18H298.9a96.321,96.321,0,0,0,11.94,6.18ZM371,242.41H321.6A94.09,94.09,0,0,0,371,242.41Zm135-233h62.17l-2.47,6.18,3.3,7.82,5.76-14h3.71l-7.41,18.94,3.7,8.64,10.7-27.61h3.7L576.81,41.49l3.29,7.83L595.75,9.38h4.12l-17.3,44.88,3.71,7.82,20.17-52.7h4.12L588.34,67l3.7,7.82L617.16,9.38h3.7l-26.76,70,3.3,7.82L627.45,9.38h4.12L599.45,92.13l3.71,8.65,32.94-84.4-3.3-7H695l-2.47,6.18,3.3,7.82,5.76-14h3.71l-7.42,18.94L701.56,37l10.7-27.58H716L703.62,41.49l3.29,7.83L722.56,9.38h4.11L709.38,54.26l3.71,7.82,20.17-52.7h4.12L715.15,67l3.7,7.82L744,9.38h3.7l-26.76,70,3.29,7.82L754.26,9.38h4.12L726.26,92.13l3.71,8.65,35.41-91.4h3.7L732,105.31l3.7,7.82L775.26,9.38h4.11L737.79,118.07l3.71,8.24L786,9.38h4.12L743.56,130.84l3.7,8.23L797.08,9.38h3.7L749.32,143.6l3.29,7.82,54.76-142h4.12l-56.82,147,3.71,8.24L818.08,9.38h3.7L760.44,169.13l3.7,7.82L828.37,9.38h4.12L766.2,182.3l3.71,7.82L839.07,9.38h4.12L772,194.65l3.71,8.24L849.78,9.38h3.7l-75.75,198,3.29,7.82L860.07,9.38h4.12L783.08,220.59l3.71,8.65L871.19,9.38h3.7L788.43,233.77l3.3,8.23L881.07,9.38h4.53L769.08,313.23,700.32,160.07,642.27,313.23ZM641,28.32l-2.88-7.41-32.94,84.4,3.7,7.82Zm5.76,12.76-3.29-7.82L611,118.07l3.71,8.24ZM653,54.26,649.27,46l-32.52,84.82,3.7,8.23Zm5.35,12.35L655,58.79,622.51,143.6l3.29,7.82Zm5.76,13.17-3.7-8.23-32.53,84.81,3.71,8.24Zm5.77,12.35-3.71-7.82-32.52,84.82,3.7,7.82Zm5.76,12.77-3.7-7.82L639.39,182.3l3.71,7.82Zm5.77,12.76-3.71-7.82-32.53,84.81,3.71,8.24Zm5.35,11.94-3.3-7.41-32.52,85.23,3.29,7.82Zm5.76,13.18-3.7-8.24-32.53,86.05,3.71,8.65Zm5.35,11.94-3.29-7.41-32.94,86.46,3.3,8.23ZM902.06,9.38h182V64.55H1004.6v59.7H1084v55.17h-79.46v63H1084v55.17H902Zm9.88,233V64.55h-6.17V242.41Zm9.88,0V64.55h-6.17V242.41Zm9.89,0V64.55h-6.18V242.41Zm9.88,0V64.55h-6.18V242.41Zm9.88,0V64.55h-6.18V242.41Zm9.88,0V64.55h-6.18V242.41Zm9.88,0V64.55h-6.18V242.41Zm9.88,0V64.55h-6.17V242.41Zm9.88,0V64.55h-6.17V242.41Zm9.88,0V64.55H994.7V242.41Zm289.85,55.17h-71.23l-4.11-4.53v4.53h-3.71v-9.06l-6.17-7v16.06h-3.71V277.41l-6.18-7.41v27.58h-3.7v-31.7l-6.18-7v38.7H1182V254.76l-6.18-7v49.82h-3.7V243.65l-6.18-7.41v61.34h-3.71V232.12l-6.17-7v72.46h-3.71v-77l-6.17-7v84h-3.71V209.47l-6.17-7v95.1h-3.71V198.36l-6.17-7V297.58h-3.71V186.83l-6.18-7V297.58h-3.7V9.38h73.28q30.06,0,52.91,12.35a88.209,88.209,0,0,1,35.41,34.38q12.55,22,12.55,50a101.071,101.071,0,0,1-9,42.2,93.121,93.121,0,0,1-26.56,34.18q-17.51,14.2-42.2,19.14Zm-168-233h-6.18v83.58h6.18Zm9.88,0h-6.17v83.58h6.17Zm9.88,0h-6.17v83.58h6.17Zm9.88,0h-6.17v83.58h6.17Zm9.88,0h-6.17v83.58h6.17Zm9.89,0H1166v83.58h6.18Zm9.88.82a34.71,34.71,0,0,0-6.18-.41v83.17l6.18-.41Zm9.88,1.24-6.18-.82v81.52l6.18-.83Zm9.88,2.06q-1.23-.83-6.18-1.65v78.64l6.18-1.24Zm3.71,74.52,6.17-2.47V72l-6.17-2.47Zm9.88-4.53a19.439,19.439,0,0,0,7-6.18V79.78a34.409,34.409,0,0,0-7-5.76Zm10.7-11.53q4.93-8.23,4.94-21.82,0-12.75-4.94-20.59Zm126.8,160.78a91.369,91.369,0,0,1-33.55-37.47q-11.73-23.67-11.74-52.08h139.58a39.8,39.8,0,0,0-10.3-18.53A57.41,57.41,0,0,0,1420,168.1q-9.46-4.33-25.52-10.09-22.24-8.23-35.62-15.65t-22.85-22q-9.46-14.61-9.47-39.32A75.86,75.86,0,0,1,1363,16.17a69.88,69.88,0,0,1,36.85-10.08q20.58,0,35.61,7.82t26.15,24.29l-37.47,24.7a53.5,53.5,0,0,0-10.91-6.58,30.571,30.571,0,0,0-12.56-2.47,26.38,26.38,0,0,0-13.17,3.49,27.361,27.361,0,0,0-9.88,9.47,23.49,23.49,0,0,0-3.71,12.56q0,9.48,5.76,15.44a45.439,45.439,0,0,0,14.62,9.88q8.85,3.91,25.32,9.27,25.53,8.24,42,16.88t28.61,26.76q12.13,18.12,12.15,48.17A90,90,0,0,1,1489,253.32a100.72,100.72,0,0,1-36,35.2,95.709,95.709,0,0,1-49,13.18q-29.31,0-51.12-13.79Zm95.52-78.85-.41-6.17h-87.28a33.592,33.592,0,0,0,.41,6.17Zm-.82,9.88a17.756,17.756,0,0,0,.82-6.17h-86.87l2.06,6.17Zm-3.71,9.89a45.432,45.432,0,0,0,2.88-6.18H1364.8c.27.55.68,1.38,1.24,2.47s1.23,2.33,2.06,3.71Zm-7.82,9.88,2.68-2.68a33.564,33.564,0,0,0,3.08-3.5h-71.22a74.983,74.983,0,0,0,5.35,6.18Zm-18.53,9.88a35.83,35.83,0,0,0,13.59-6.18h-51a78.923,78.923,0,0,0,11.52,6.18Z" fill="#fff"/>
    <path id="Path_2058" data-name="Path 2058" d="M1641.27,126.94V0h14.33V54.63c6.49-9.28,17.85-16,33.36-16,24.79,0,43.63,18.93,43.63,44.89s-18.84,45.26-43.63,45.26c-15.51,0-26.87-6.67-33.36-15.87v14.07Zm77.08-43.46c0-17.94-12.8-31.91-30.83-31.91-18.49,0-32.1,14-32.1,31.91s13.61,32.28,32.1,32.28C1705.55,115.76,1718.35,101.33,1718.35,83.48Zm112.78,36.79a63.68,63.68,0,0,1-32.63,8.47c-29.12,0-49.23-18.39-49.23-45.08,0-25.78,18.57-45.07,44.54-45.07,29.3,0,45.89,23.71,41.2,50.3h-70.77c2.43,17,16.86,26.42,33.62,26.42,10.1,0,19.12-1.72,30.75-8Zm-9.19-43.1c-1-14.78-11.18-25.24-27.68-25.24-16.32,0-28.31,10.46-29.66,25.24Zm121.88,49.77h-14.33V112.69c-6.49,9.29-17.85,16.05-33.36,16.05-24.79,0-43.63-19.29-43.63-45.35s18.84-44.8,43.63-44.8c15.51,0,26.87,6.67,33.36,15.95V40.39h14.33Zm-77.08-43.55c0,17.94,12.8,32.37,30.83,32.37,18.49,0,32.1-14.43,32.1-32.37s-13.61-31.82-32.1-31.82c-18.03,0-30.83,13.97-30.83,31.82Zm170-43h14.16V91.78c0,21.72-15.33,37-39.22,37s-39.22-15.06-39.22-36.42V40.39h14.25V89.7c0,16.23,10,25.61,25,25.61s25.06-9.38,25.06-25.61Zm62.12,12.35V99.53c0,11.36,6.13,16.32,15,16.32a46.881,46.881,0,0,0,14.78-2.44l1.89,12.35c-3.69,1.63-11.17,3-18.21,3-16.67,0-27.76-9.2-27.76-26.87V52.74h-16V40.39h16.05V12.62h14.15V40.39h27.68V52.74Zm111.25-12.35h15.78l-40.84,97.55c-7.39,17.22-15.51,26.86-33,26.86a34.57,34.57,0,0,1-14.78-3l1.71-12.17a32.278,32.278,0,0,0,12.26,2.34c9.83,0,15.69-6.22,20.74-18.57l1.53-4.06-37.42-89h15.6l29.48,72.48ZM1684.6,232.71c20.18,4,30.84,13.1,30.84,28.94,0,19.75-15.73,30.31-40.34,30.31-14.37,0-28.52-2.85-38-7.6l2.33-15c9.29,4.75,22.28,7.61,34.54,7.61,16.26,0,25-5.07,25-14.47,0-9.09-7.82-12.89-22.08-15.64l-13.2-2.64c-16.79-3.27-27.57-12.14-27.57-27.77,0-18.06,16-30.1,41.2-30.1,12.25,0,24.6,2.32,32.53,5.59l-2.12,14.68a84.9,84.9,0,0,0-29.36-5.38c-16.48,0-25.56,5.49-25.56,14.78,0,8.77,7,11.83,21.23,14.58Zm79.86-29.78v54.81c0,13.31,7.18,19.12,17.53,19.12a55.3,55.3,0,0,0,17.32-2.85l2.22,14.47c-4.33,1.9-13.1,3.48-21.33,3.48-19.54,0-32.54-10.77-32.54-31.47V202.93H1729V188.46h18.8V155.93h16.58v32.53h32.43v14.47Zm131.71-14.47h16.58v60.2c0,25.45-18,43.3-45.94,43.3s-46-17.63-46-42.67V188.46h16.69v57.77c0,19,11.73,30,29.26,30s29.36-11,29.36-30Zm132.56,84.91c-7.6,10.78-20.91,18.59-39.08,18.59-29,0-51.12-22.6-51.12-53s22.08-52.59,51.12-52.59c18.17,0,31.48,7.92,39.08,18.79v-64h16.8V289.85h-16.8Zm.21-34.43c0-21-16-37.39-37.6-37.39-21.12,0-36.12,16.37-36.12,37.39s15,37.81,36.12,37.81C2013,276.75,2028.94,259.86,2028.94,238.94Zm49.65-84.49c0-6.13,4.23-10.35,10.35-10.35s10.57,4.22,10.57,10.35-4.44,10.45-10.57,10.45-10.35-4.33-10.35-10.45Zm2,34h16.79v101.4H2080.6Zm97.81-2.11c30.84,0,53.86,23.13,53.86,52.8s-23,52.81-53.86,52.81-53.87-23.13-53.87-52.81,23.04-52.79,53.88-52.79Zm0,90c21.33,0,37.07-16.26,37.07-37.18S2199.74,202,2178.41,202s-37.07,16.26-37.07,37.17,15.73,37.16,37.07,37.16Z" fill="#fff"/>
    <path id="Path_2059" data-name="Path 2059" d="M1557.32,274.29c49.77-130.89-74.66-134.16-5-261.78-49.77,134.16,79.64,121.07,19.91,271.6C1567.27,297.2,1552.34,293.93,1557.32,274.29Z" fill="#fff"/>
  </g>
</svg>
